<?xml version="1.0" encoding="utf-8"?>
<!-- Generator: Adobe Illustrator 23.0.1, SVG Export Plug-In . SVG Version: 6.00 Build 0)  -->
<svg version="1.1" id="Layer_1" xmlns="http://www.w3.org/2000/svg" xmlns:xlink="http://www.w3.org/1999/xlink" x="0px" y="0px"
	 viewBox="0 0 800 600" style="enable-background:new 0 0 800 600;" xml:space="preserve">
<style type="text/css">
	.st0{fill:#FEFEFE;}
	.st1{fill:#F3BE4E;}
	.st2{fill:#EB685D;}
	.st3{fill:#62C654;}
</style>
<g>
	<path class="st0" d="M25.12,95.39c250.12,0,500.24,0,750.36,0c0,127.55,0,255.1,0,382.65c-250.12,0-500.24,0-750.36,0
		C25.12,350.49,25.12,222.94,25.12,95.39z M399.94,474.64c122.81,0,245.62-0.01,368.44,0.05c2.5,0,3.77-1.27,3.77-3.76
		c-0.08-27.55-0.05-55.1-0.05-82.64c0-95.08,0-190.16,0.03-285.25c0-1.37-0.14-2.57-1.48-3.13c-0.85-0.36-1.84-0.51-2.77-0.51
		c-245.2-0.03-490.4-0.03-735.6-0.04c-3.48,0-4.12,0.63-4.12,4.03c0,122.45,0.01,244.9-0.04,367.34c0,2.77,1.18,3.95,3.94,3.94
		C154.68,474.63,277.31,474.64,399.94,474.64z"/>
	<path d="M399.94,474.64c-122.63,0-245.26-0.01-367.89,0.04c-2.75,0-3.94-1.17-3.94-3.94c0.05-122.45,0.04-244.9,0.04-367.34
		c0-3.41,0.64-4.03,4.12-4.03c245.2,0,490.4,0.01,735.6,0.04c0.93,0,1.92,0.15,2.77,0.51c1.33,0.56,1.48,1.76,1.48,3.13
		c-0.03,95.08-0.03,190.16-0.03,285.25c0,27.55-0.03,55.1,0.05,82.64c0.01,2.49-1.26,3.76-3.77,3.76
		C645.56,474.63,522.75,474.64,399.94,474.64z M60.08,112.5c0-2.81-1.27-4-4.29-4c-2.69,0-4.1,1.39-4.09,4.04
		c0.01,2.47,1.85,4.36,4.24,4.34C58.37,116.85,60.08,115.05,60.08,112.5z M41.25,108.49c-2.63,0.01-4.12,1.46-4.11,4.02
		c0,2.5,1.81,4.36,4.2,4.36c2.44,0,4.17-1.81,4.17-4.35C45.52,109.76,44.16,108.48,41.25,108.49z M70.51,108.49
		c-2.66-0.01-4.24,1.47-4.25,3.96c-0.01,2.49,1.82,4.41,4.19,4.42c2.45,0,4.18-1.8,4.19-4.35C74.65,109.84,73.27,108.5,70.51,108.49
		z"/>
	<path class="st1" d="M60.08,112.5c0,2.56-1.7,4.36-4.14,4.38c-2.39,0.02-4.23-1.86-4.24-4.34c-0.01-2.65,1.4-4.05,4.09-4.04
		C58.8,108.5,60.08,109.68,60.08,112.5z"/>
	<path class="st2" d="M41.25,108.49c2.92-0.01,4.27,1.27,4.27,4.03c-0.01,2.54-1.74,4.34-4.17,4.35c-2.4,0-4.2-1.86-4.2-4.36
		C37.13,109.96,38.62,108.5,41.25,108.49z"/>
	<path class="st3" d="M70.51,108.49c2.76,0.01,4.14,1.35,4.13,4.03c-0.01,2.55-1.74,4.35-4.19,4.35c-2.38,0-4.21-1.93-4.19-4.42
		C66.27,109.96,67.85,108.48,70.51,108.49z"/>
</g>
</svg>
